<svg width="22" height="19" viewBox="0 0 22 19" fill="none" xmlns="http://www.w3.org/2000/svg">
<path fill-rule="evenodd" clip-rule="evenodd" d="M7.99728 1.09713C3.60478 3.91813 1.16469 7.20113 0.676444 10.9479C-0.083639 16.7795 5.13136 19.6337 7.77386 17.0694C10.4164 14.5045 8.83261 11.2495 6.91928 10.3593C5.00594 9.46971 3.83578 9.77946 4.03994 8.59004C4.24411 7.40121 6.96594 4.10421 9.35761 2.56888C9.44236 2.49681 9.49643 2.39512 9.50879 2.28456C9.52115 2.17399 9.49086 2.06288 9.42411 1.97388L8.83261 1.20446C8.57594 0.870793 8.32978 0.883626 7.99728 1.09654V1.09713ZM19.5624 1.09713C15.1699 3.91813 12.7293 7.20171 12.2416 10.9479C11.4815 16.7795 16.6965 19.6337 19.339 17.0694C21.9815 14.5045 20.3978 11.2495 18.4839 10.3593C16.5705 9.46971 15.4004 9.77946 15.6045 8.59004C15.8087 7.40121 18.5311 4.10421 20.9228 2.56888C21.0074 2.49673 21.0614 2.395 21.0736 2.28444C21.0859 2.17388 21.0555 2.06281 20.9887 1.97388L20.3972 1.20446C20.1405 0.870793 19.8944 0.883626 19.5624 1.09654V1.09713Z" fill="white"/>
</svg>
